# xmcd
#
# Track frame offsets: 
#        150
#        15184
#        32204
#        46911
#        61282
#        74450
#        88998
#        106881
#        118921
#        129864
#        142625
#        157050
#        169726
#        181655
#        198760
#
# Disc length: 2876 seconds
#
# Revision: 0
# Processed by: cddbd v1.5.2PL0 Copyright (c) Steve Scherf et al.
# Submitted via: ExactAudioCopyFreeDBPlugin 1.0
#
DISCID=bf0b3a0f
DTITLE=Pierre Poirier - Parfum Country
DYEAR=1900
DGENRE=Country
TTITLE0=1- Mille après milles
TTITLE1=Coeur de maman
TTITLE2=Jambalaya
TTITLE3=Un soir sans toi
TTITLE4=Le prisonnier
TTITLE5=Joe Whiskey
TTITLE6=Que c'est beau l'amour
TTITLE7=Green Gras of Home
TTITLE8=On the road again
TTITLE9=T'ai-je dit
TTITLE10=T'envoler
TTITLE11=Tu es revenue
TTITLE12=Your cheating Heart
TTITLE13=Un verre sur la table
TTITLE14=Chauffeur de Cadilac
EXTD=
EXTT0=
EXTT1=
EXTT2=
EXTT3=
EXTT4=
EXTT5=
EXTT6=
EXTT7=
EXTT8=
EXTT9=
EXTT10=
EXTT11=
EXTT12=
EXTT13=
EXTT14=
PLAYORDER=
